<?xml version="1.0" encoding="UTF-8"?>
<svg xmlns="http://www.w3.org/2000/svg" xmlns:xlink="http://www.w3.org/1999/xlink" height="101.2" preserveAspectRatio="xMidYMid meet" version="1.0" viewBox="25.2 49.3 149.6 101.2" width="149.6" zoomAndPan="magnify"><g fill="#2ab1b5" id="change1_1"><path d="M 157.1875 124.0625 C 151.519531 123.679688 144.769531 123.613281 138.710938 124.578125 C 132.75 125.527344 101.402344 129.839844 68.445312 121.617188 C 69.300781 120.875 70.539062 119.664062 72.09375 118.140625 C 73.164062 117.09375 74.390625 115.894531 75.746094 114.597656 C 75.78125 114.566406 75.933594 114.425781 76.179688 114.179688 C 78.113281 112.339844 80.300781 110.3125 82.691406 108.226562 C 82.75 108.179688 82.804688 108.132812 82.859375 108.082031 C 86.644531 104.785156 90.9375 101.347656 95.535156 98.277344 C 96.019531 97.953125 96.503906 97.636719 96.988281 97.328125 C 96.496094 99.121094 96.242188 100.984375 96.242188 102.882812 C 96.242188 115.117188 106.859375 125.074219 119.910156 125.074219 C 132.964844 125.074219 143.582031 115.117188 143.582031 102.882812 C 143.582031 102.71875 143.578125 102.558594 143.578125 102.394531 C 145.171875 104.871094 146.65625 107.671875 148.027344 110.800781 C 148.230469 111.269531 151.402344 118.507812 157.1875 124.0625 Z M 104.289062 93.171875 C 112.390625 89.175781 119.65625 87.769531 125.96875 88.992188 C 129.523438 89.683594 132.828125 91.234375 135.867188 93.632812 C 137.761719 96.402344 138.761719 99.589844 138.761719 102.882812 C 138.761719 112.460938 130.304688 120.253906 119.910156 120.253906 C 109.519531 120.253906 101.0625 112.460938 101.0625 102.882812 C 101.0625 99.386719 102.175781 96.039062 104.289062 93.171875 Z M 174.546875 93.765625 C 174.726562 92.445312 173.804688 91.234375 172.484375 91.054688 C 171.164062 90.878906 169.949219 91.800781 169.769531 93.117188 C 169.058594 98.367188 165.9375 101.976562 160.488281 103.847656 C 156.105469 105.351562 151.820312 105.152344 151.777344 105.148438 C 151.425781 105.132812 151.085938 105.195312 150.773438 105.316406 C 149.980469 103.738281 149.152344 102.242188 148.289062 100.835938 C 150.492188 100.652344 153.6875 100.101562 156.984375 98.566406 C 162.429688 96.03125 169.183594 90.277344 170.457031 77.273438 C 170.585938 75.945312 169.617188 74.769531 168.292969 74.636719 C 166.96875 74.503906 165.789062 75.476562 165.660156 76.800781 C 163.671875 97.082031 146.472656 96.132812 145.734375 96.082031 C 145.496094 96.066406 145.265625 96.082031 145.042969 96.132812 C 144.234375 95.097656 143.402344 94.125 142.542969 93.21875 C 144.789062 92.695312 147.742188 91.710938 150.6875 89.882812 C 156.140625 86.488281 162.585938 79.488281 162.304688 65.40625 C 162.277344 64.074219 161.164062 63.023438 159.84375 63.042969 C 158.511719 63.070312 157.453125 64.171875 157.480469 65.5 C 157.929688 87.835938 139.246094 88.964844 138.453125 89.003906 C 138.257812 89.011719 138.066406 89.042969 137.882812 89.097656 C 136.457031 88.058594 134.976562 87.167969 133.441406 86.429688 C 135.152344 85.796875 137.058594 84.890625 138.949219 83.589844 C 144.144531 80.019531 150.179688 72.757812 149.445312 58.441406 C 149.378906 57.109375 148.246094 56.09375 146.914062 56.15625 C 145.585938 56.226562 144.5625 57.359375 144.632812 58.6875 C 145.800781 81.453125 127.785156 83.007812 126.984375 83.066406 C 126.839844 83.074219 126.703125 83.097656 126.566406 83.128906 C 128.070312 81.40625 130.253906 78.496094 131.753906 74.730469 C 134.050781 68.941406 135.132812 60.027344 127.222656 50.425781 C 126.375 49.394531 124.855469 49.25 123.828125 50.097656 C 122.800781 50.941406 122.652344 52.460938 123.5 53.488281 C 135.683594 68.28125 122.253906 80.757812 121.652344 81.304688 C 120.949219 81.9375 120.703125 82.890625 120.9375 83.742188 C 119.160156 83.765625 117.371094 83.941406 115.589844 84.25 C 116.523438 82.824219 117.460938 81.132812 118.222656 79.222656 C 120.519531 73.433594 121.601562 64.519531 113.691406 54.914062 C 112.84375 53.886719 111.324219 53.738281 110.296875 54.585938 C 109.269531 55.433594 109.121094 56.953125 109.96875 57.980469 C 122.152344 72.769531 108.722656 85.25 108.121094 85.796875 C 107.902344 85.988281 107.730469 86.214844 107.601562 86.460938 C 105.957031 87.074219 104.324219 87.777344 102.714844 88.554688 C 103.492188 87.285156 104.253906 85.839844 104.890625 84.238281 C 107.191406 78.453125 108.269531 69.539062 100.359375 59.933594 C 99.511719 58.90625 97.992188 58.757812 96.964844 59.605469 C 95.9375 60.453125 95.792969 61.972656 96.636719 63 C 108.820312 77.789062 95.390625 90.269531 94.789062 90.816406 C 94.042969 91.484375 93.8125 92.515625 94.125 93.410156 C 93.796875 93.621094 93.46875 93.835938 93.140625 94.054688 C 95.375 88.261719 96.320312 79.460938 88.515625 69.984375 C 87.671875 68.957031 86.152344 68.8125 85.125 69.65625 C 84.097656 70.503906 83.949219 72.023438 84.796875 73.050781 C 92.8125 82.785156 89.738281 91.515625 86.527344 96.503906 C 85.976562 96.6875 85.105469 96.945312 84.019531 97.148438 C 84.15625 92.507812 82.761719 87.078125 78.09375 81.40625 C 77.25 80.378906 75.730469 80.230469 74.703125 81.078125 C 73.671875 81.921875 73.527344 83.441406 74.371094 84.46875 C 78.195312 89.117188 79.351562 93.53125 79.167969 97.378906 C 75.570312 97.007812 71.566406 95.226562 69.035156 89.933594 C 68.460938 88.730469 67.023438 88.222656 65.820312 88.796875 C 64.621094 89.371094 64.109375 90.8125 64.683594 92.011719 C 68.15625 99.273438 73.714844 101.585938 78.253906 102.128906 C 77.902344 103.164062 77.476562 104.128906 77.015625 105.011719 C 72.5625 105.828125 64.648438 105.714844 60.253906 96.359375 C 59.6875 95.15625 58.25 94.636719 57.042969 95.203125 C 55.839844 95.769531 55.324219 97.207031 55.890625 98.410156 C 60.164062 107.511719 67.132812 109.789062 72.226562 110.097656 C 72.621094 110.121094 73.011719 110.132812 73.394531 110.136719 C 73.226562 110.316406 73.082031 110.46875 72.953125 110.59375 C 72.457031 111.066406 71.976562 111.53125 71.511719 111.976562 C 71.027344 111.917969 70.523438 112.003906 70.0625 112.257812 C 69.460938 112.585938 55.175781 120.207031 46.953125 107.152344 C 46.246094 106.027344 44.757812 105.6875 43.628906 106.398438 C 42.503906 107.109375 42.164062 108.597656 42.875 109.722656 C 47.878906 117.667969 54.671875 119.578125 60.039062 119.578125 C 60.664062 119.578125 61.265625 119.550781 61.847656 119.507812 C 62.457031 119.460938 63.050781 119.390625 63.632812 119.304688 C 57.652344 123.804688 50.171875 126.167969 41.367188 126.339844 C 34.054688 126.480469 28.542969 124.972656 28.488281 124.957031 C 27.210938 124.601562 25.878906 125.347656 25.519531 126.628906 C 25.160156 127.910156 25.90625 129.242188 27.1875 129.601562 C 27.4375 129.667969 33.324219 131.296875 41.304688 131.164062 C 49.617188 131.027344 57.132812 129.007812 63.375 125.269531 L 66.960938 126.214844 C 66.96875 126.21875 66.976562 126.21875 66.984375 126.222656 C 67.476562 126.34375 67.96875 126.464844 68.460938 126.585938 C 64.761719 129.46875 55.304688 137.960938 56.726562 148.367188 C 56.890625 149.578125 57.925781 150.453125 59.109375 150.453125 C 59.21875 150.453125 59.328125 150.445312 59.441406 150.429688 C 60.757812 150.253906 61.683594 149.035156 61.503906 147.71875 C 60.1875 138.082031 72.4375 129.628906 72.578125 129.53125 C 73.207031 129.105469 73.570312 128.4375 73.628906 127.738281 C 76.496094 128.328125 79.339844 128.828125 82.144531 129.253906 C 81.273438 130.371094 79.582031 132.683594 78.152344 135.472656 C 75.25 141.121094 74.882812 145.773438 77.054688 149.304688 C 77.511719 150.046875 78.300781 150.453125 79.109375 150.453125 C 79.542969 150.453125 79.976562 150.339844 80.371094 150.097656 C 81.507812 149.398438 81.859375 147.914062 81.160156 146.777344 C 78.570312 142.570312 84.214844 134.242188 86.398438 131.65625 C 86.824219 131.152344 87.007812 130.527344 86.960938 129.917969 C 89.277344 130.207031 91.5625 130.445312 93.804688 130.640625 C 93.476562 132.105469 92.90625 134.839844 92.480469 137.761719 C 91.261719 146.15625 92.339844 148.53125 93.554688 149.746094 C 94.023438 150.21875 94.640625 150.453125 95.257812 150.453125 C 95.875 150.453125 96.492188 150.21875 96.960938 149.746094 C 97.875 148.835938 97.902344 147.367188 97.042969 146.421875 C 96.929688 146.164062 96.339844 144.449219 97.328125 137.960938 C 97.804688 134.839844 98.445312 131.953125 98.664062 130.996094 C 101.675781 131.179688 104.589844 131.289062 107.386719 131.339844 C 107.320312 131.605469 107.304688 131.890625 107.339844 132.179688 C 108.089844 138.511719 108.765625 146.148438 108.546875 147.492188 C 108.246094 148.773438 109.027344 150.0625 110.308594 150.382812 C 110.507812 150.429688 110.703125 150.453125 110.894531 150.453125 C 111.976562 150.453125 112.960938 149.722656 113.234375 148.628906 C 113.773438 146.46875 112.769531 137.039062 112.125 131.609375 C 112.117188 131.527344 112.101562 131.445312 112.085938 131.367188 C 114.636719 131.355469 117.066406 131.296875 119.351562 131.203125 C 119.175781 131.796875 119.222656 132.457031 119.539062 133.039062 C 122.296875 138.140625 124.730469 144.976562 123.847656 147.128906 C 123.34375 148.363281 123.933594 149.769531 125.167969 150.273438 C 125.464844 150.398438 125.773438 150.453125 126.078125 150.453125 C 127.027344 150.453125 127.929688 149.890625 128.3125 148.957031 C 130.425781 143.789062 125.265625 133.527344 123.902344 130.972656 C 126.144531 130.832031 128.203125 130.667969 130.050781 130.492188 C 130.109375 130.871094 130.261719 131.238281 130.511719 131.5625 C 133.636719 135.660156 138.296875 143.628906 137.496094 147.5625 C 137.234375 148.867188 138.078125 150.140625 139.382812 150.40625 C 139.542969 150.4375 139.703125 150.453125 139.863281 150.453125 C 140.984375 150.453125 141.992188 149.664062 142.222656 148.523438 C 143.476562 142.34375 137.710938 133.359375 135.285156 129.925781 C 137.171875 129.691406 138.589844 129.480469 139.472656 129.339844 C 139.65625 129.308594 139.84375 129.28125 140.03125 129.253906 C 140.09375 129.773438 140.324219 130.277344 140.726562 130.671875 C 143.582031 133.507812 150.867188 142.113281 150.28125 147.792969 C 150.144531 149.121094 151.105469 150.304688 152.429688 150.441406 C 152.515625 150.449219 152.597656 150.453125 152.679688 150.453125 C 153.902344 150.453125 154.949219 149.53125 155.074219 148.289062 C 155.484375 144.34375 153.71875 139.5625 149.828125 134.082031 C 148.238281 131.839844 146.625 129.949219 145.519531 128.730469 C 154.945312 128.25 164.796875 129.621094 167.980469 130.117188 C 168.371094 130.195312 168.765625 130.261719 169.164062 130.3125 C 170.460938 130.476562 171.652344 129.578125 171.851562 128.285156 C 172.050781 126.992188 171.179688 125.777344 169.894531 125.546875 C 169.796875 125.53125 169.410156 125.460938 168.777344 125.359375 C 160.410156 123.589844 154.671875 113.371094 152.972656 109.976562 C 154.851562 109.933594 158.300781 109.667969 161.90625 108.457031 C 169.207031 106 173.578125 100.921875 174.546875 93.765625" fill="inherit"/><path d="M 119.910156 100.710938 C 121.984375 100.710938 123.667969 102.394531 123.667969 104.464844 C 123.667969 106.535156 121.984375 108.222656 119.910156 108.222656 C 117.839844 108.222656 116.15625 106.535156 116.15625 104.464844 C 116.15625 102.394531 117.839844 100.710938 119.910156 100.710938 Z M 119.910156 113.042969 C 124.644531 113.042969 128.492188 109.195312 128.492188 104.464844 C 128.492188 99.734375 124.644531 95.886719 119.910156 95.886719 C 115.183594 95.886719 111.335938 99.734375 111.335938 104.464844 C 111.335938 109.195312 115.183594 113.042969 119.910156 113.042969" fill="inherit"/></g></svg>